HIERARCHY
ROOT reference
{
  OFFSET 0 0 0
  CHANNELS 6 Xposition Yposition Zposition Zrotation Xrotation Yrotation
  JOINT Hips
  {
    OFFSET 26.1007 84.7754 115.976
    CHANNELS 6 Xposition Yposition Zposition Zrotation Xrotation Yrotation
    JOINT Spine
    {
      OFFSET 0 7.81434 0
      CHANNELS 6 Xposition Yposition Zposition Zrotation Xrotation Yrotation
      JOINT Spine1
      {
        OFFSET 0 23.3781 0
        CHANNELS 6 Xposition Yposition Zposition Zrotation Xrotation Yrotation
        JOINT Neck
        {
          OFFSET 0 23.2821 2.11656
          CHANNELS 6 Xposition Yposition Zposition Zrotation Xrotation Yrotation
          JOINT Head
          {
            OFFSET 0 13.3416 -1.90594
            CHANNELS 6 Xposition Yposition Zposition Zrotation Xrotation Yrotation
            End Site
            {
              OFFSET 0 23.8242 0
            }
          }
        }
        JOINT LeftShoulder
        {
          OFFSET 3.82472 21.4916 -0.175476
          CHANNELS 6 Xposition Yposition Zposition Zrotation Xrotation Yrotation
          JOINT LeftArm
          {
            OFFSET 10.8239 0 0
            CHANNELS 6 Xposition Yposition Zposition Zrotation Xrotation Yrotation
            JOINT LeftForeArm
            {
              OFFSET 28.5356 0 0
              CHANNELS 6 Xposition Yposition Zposition Zrotation Xrotation Yrotation
              JOINT LeftHand
              {
                OFFSET 24.5315 0 0
                CHANNELS 6 Xposition Yposition Zposition Zrotation Xrotation Yrotation
                End Site
                {
                  OFFSET 14.2945 0 0
                }
              }
            }
          }
        }
        JOINT RightShoulder
        {
          OFFSET -3.77033 21.4916 -0.175476
          CHANNELS 6 Xposition Yposition Zposition Zrotation Xrotation Yrotation
          JOINT RightArm
          {
            OFFSET -10.8239 0 0
            CHANNELS 6 Xposition Yposition Zposition Zrotation Xrotation Yrotation
            JOINT RightForeArm
            {
              OFFSET -28.5356 0 0
              CHANNELS 6 Xposition Yposition Zposition Zrotation Xrotation Yrotation
              JOINT RightHand
              {
                OFFSET -24.5315 0 0
                CHANNELS 6 Xposition Yposition Zposition Zrotation Xrotation Yrotation
                End Site
                {
                  OFFSET -14.2945 0 0
                }
              }
            }
          }
        }
      }
    }
    JOINT LeftUpLeg
    {
      OFFSET 9.52968 0 0
      CHANNELS 6 Xposition Yposition Zposition Zrotation Xrotation Yrotation
      JOINT LeftLeg
      {
        OFFSET 0 -40.1884 0
        CHANNELS 6 Xposition Yposition Zposition Zrotation Xrotation Yrotation
        JOINT LeftFoot
        {
          OFFSET 0 -39.9954 0
          CHANNELS 6 Xposition Yposition Zposition Zrotation Xrotation Yrotation
          JOINT LeftToeBase
          {
            OFFSET 0 -6.19429 14.2945
            CHANNELS 6 Xposition Yposition Zposition Zrotation Xrotation Yrotation
            End Site
            {
              OFFSET 0 0 3.81187
            }
          }
        }
      }
    }
    JOINT RightUpLeg
    {
      OFFSET -9.52968 0 0
      CHANNELS 6 Xposition Yposition Zposition Zrotation Xrotation Yrotation
      JOINT RightLeg
      {
        OFFSET 0 -40.1884 0
        CHANNELS 6 Xposition Yposition Zposition Zrotation Xrotation Yrotation
        JOINT RightFoot
        {
          OFFSET 0 -39.9954 0
          CHANNELS 6 Xposition Yposition Zposition Zrotation Xrotation Yrotation
          JOINT RightToeBase
          {
            OFFSET 0 -6.19429 14.2945
            CHANNELS 6 Xposition Yposition Zposition Zrotation Xrotation Yrotation
            End Site
            {
              OFFSET 0 0 3.81187
            }
          }
        }
      }
    }
  }
}
MOTION
Frames:	4
Frame Time:	0.004
0 0 0 0 0 -0 -2.69202 44.1089 -176.196 4.20794 26.8634 -11.5448 -7.10543e-015 7.81434 -2.84217e-014 -7.38805 34.154 4.57704 0 23.3781 -2.84217e-014 -9.64657 25.1759 4.46317 -1.77636e-015 23.2821 2.11656 -5.27401 17.7837 0.651664 0 13.3416 -1.90594 3.09944 -4.90911 1.16725 3.82472 21.4916 -0.175476 3.30029 4.25886 -21.752 10.8239 -2.84217e-014 0 -14.4916 -0.399879 -42.086 28.5356 0 -7.10543e-015 -4.34158 -41.1782 -15.8045 24.5315 -1.42109e-014 -1.42109e-014 54.1342 -33.3869 20.1039 -3.77033 21.4916 -0.175476 -3.47227 5.37352 30.853 -10.8239 0 -7.10543e-015 16.0769 -7.71459 44.7138 -28.5356 -1.42109e-014 -7.10543e-015 -1.14795 -32.9756 5.44712 -24.5315 0 1.42109e-014 -46.9682 -28.5041 -11.8035 9.52968 0 0 135.52 -79.6951 133.96 -1.77636e-015 -40.1884 1.06581e-014 -149.519 57.3748 145.731 8.88178e-016 -39.9954 -1.42109e-014 20.2157 -47.1082 16.4528 1.77636e-015 -6.19429 14.2945 5.59082e-017 0 7.95139e-016 -9.52968 7.10543e-015 0 -4.77144 -30.3897 -3.19602 7.10543e-015 -40.1884 2.84217e-014 -113.964 73.0474 93.7554 -3.55271e-015 -39.9954 3.55271e-015 32.0415 -7.00929 48.2853 0 -6.19429 14.2945 -1.59028e-015 9.54166e-015 -3.18055e-015 
0 0 0 0 0 -0 -2.69208 44.0995 -176.197 4.21141 26.8534 -11.5414 0 7.81434 -2.84217e-014 -7.37985 34.1482 4.56912 0 23.3781 0 -9.65644 25.188 4.4621 0 23.2821 2.11656 -5.25927 17.7882 0.651405 1.77636e-015 13.3416 -1.90594 3.08528 -4.92453 1.16537 3.82472 21.4916 -0.175476 3.30693 4.24435 -21.7516 10.8239 0 0 -14.4937 -0.381552 -42.0841 28.5356 2.84217e-014 0 -4.33001 -41.1724 -15.7884 24.5315 0 0 54.1128 -33.3858 20.1169 -3.77033 21.4916 -0.175476 -3.46752 5.37535 30.8536 -10.8239 -2.84217e-014 7.10543e-015 16.079 -7.71896 44.7179 -28.5356 2.84217e-014 0 -1.14311 -32.9544 5.44218 -24.5315 0 1.42109e-014 -46.9206 -28.4963 -11.7805 9.52968 0 0 135.52 -79.6964 133.959 0 -40.1884 7.10543e-015 -149.527 57.3552 145.693 4.44089e-016 -39.9954 1.42109e-014 20.2858 -47.0966 16.4257 1.77636e-015 -6.19429 14.2945 -1.2424e-016 1.98785e-016 -0 -9.52968 7.10543e-015 0 -4.78146 -30.3881 -3.20956 7.10543e-015 -40.1884 0 -114.058 73.0317 93.9649 0 -39.9954 0 32.0216 -7.06676 48.1706 0 -6.19429 14.2945 1.59028e-015 3.18055e-015 1.59028e-015 
0 0 0 0 0 -0 -2.69385 44.0925 -176.198 4.21276 26.8551 -11.5372 0 7.81434 2.84217e-014 -7.36956 34.1393 4.55824 -3.55271e-015 23.3781 1.42109e-014 -9.64823 25.1813 4.45256 -1.77636e-015 23.2821 2.11656 -5.27511 17.7971 0.651156 0 13.3416 -1.90594 3.09831 -4.92781 1.18079 3.82472 21.4916 -0.175476 3.29754 4.2443 -21.7533 10.8239 0 0 -14.5058 -0.384428 -42.0675 28.5356 0 0 -4.34209 -41.1816 -15.8006 24.5315 0 0 54.1369 -33.3872 20.115 -3.77033 21.4916 -0.175476 -3.46789 5.38714 30.8599 -10.8239 -2.84217e-014 0 16.0725 -7.72149 44.7225 -28.5356 1.42109e-014 0 -1.14344 -32.9512 5.43687 -24.5315 1.42109e-014 0 -46.9198 -28.4944 -11.7768 9.52968 0 0 135.588 -79.6854 134.028 3.55271e-015 -40.1884 0 -149.537 57.3515 145.719 4.44089e-016 -39.9954 -1.42109e-014 19.9501 -47.2227 16.3311 1.77636e-015 -6.19429 14.2945 1.2424e-017 -1.98785e-016 7.95139e-016 -9.52968 7.10543e-015 -2.84217e-014 -4.79144 -30.3955 -3.22396 0 -40.1884 0 -114.107 73.0241 94.0276 -3.55271e-015 -39.9954 -1.77636e-015 32.0143 -7.08662 48.1712 0 -6.19429 14.2945 3.18055e-015 0 -7.95139e-016 
0 0 0 0 0 -0 -2.69574 44.0848 -176.2 4.20663 26.8372 -11.5311 0 7.81434 0 -7.36859 34.1431 4.5627 -3.55271e-015 23.3781 -1.42109e-014 -9.65436 25.193 4.45962 8.88178e-016 23.2821 2.11656 -5.24296 17.7971 0.650908 0 13.3416 -1.90594 3.07867 -4.94543 1.17029 3.82472 21.4916 -0.175476 3.31635 4.23581 -21.7657 10.8239 0 0 -14.5155 -0.382118 -42.0659 28.5356 -2.84217e-014 7.10543e-015 -4.33232 -41.1706 -15.7844 24.5315 -7.10543e-015 0 54.1198 -33.3894 20.107 -3.77033 21.4916 -0.175476 -3.46395 5.3853 30.8411 -10.8239 0 0 16.0618 -7.70902 44.7343 -28.5356 -1.42109e-014 -1.42109e-014 -1.15004 -32.9604 5.43213 -24.5315 -1.42109e-014 0 -46.9276 -28.5021 -11.7791 9.52968 7.10543e-015 0 135.546 -79.6934 133.989 8.88178e-016 -40.1884 3.55271e-015 -149.566 57.3404 145.765 0 -39.9954 1.42109e-014 20.2526 -47.1039 16.4793 1.77636e-015 -6.19429 14.2945 -2.42269e-016 9.93923e-017 7.95139e-016 -9.52968 1.42109e-014 -2.84217e-014 -4.79212 -30.38 -3.22322 0 -40.1884 2.84217e-014 -114.146 73.0327 94.0271 3.55271e-015 -39.9954 0 32.0163 -7.03407 48.2232 0 -6.19429 14.2945 -0 0 3.97569e-015 
